#N canvas 675 169 450 300 10;
#X obj 71 234 spigot;
#X obj 117 102 bng 15 250 50 0 empty empty empty 17 7 0 10 -262144
-1 -1;
#X obj 117 132 t b b;
#X msg 145 154 0;
#X msg 104 205 1;
#X obj 63 204 f;
#X obj 87 174 t b b;
#X obj 70 65 change;
#X obj 72 260 outlet;
#X obj 67 23 inlet;
#X obj 69 87 t a b;
#X obj 101 151 del 25;
#X connect 0 0 8 0;
#X connect 1 0 2 0;
#X connect 2 0 11 0;
#X connect 2 1 3 0;
#X connect 3 0 0 1;
#X connect 4 0 0 1;
#X connect 5 0 0 0;
#X connect 6 0 5 0;
#X connect 6 1 4 0;
#X connect 7 0 10 0;
#X connect 9 0 7 0;
#X connect 10 0 5 1;
#X connect 10 1 1 0;
#X connect 11 0 6 0;
