#N canvas 479 45 823 591 10;
#N canvas 0 23 582 719 euclideanCompare 0;
#X obj 65 198 i;
#X obj 105 199 + 1;
#X obj 64 238 mod 10;
#X obj 145 25 r \$0-steps;
#X obj 65 167 until;
#X floatatom 65 261 5 0 0 0 - - -, f 5;
#X obj 160 327 sel 1;
#X obj 158 431 tabread \$0-euclidean-acc;
#X obj 158 349 i;
#X obj 198 350 + 1;
#X floatatom 157 403 5 0 0 0 - - -, f 5;
#X obj 158 378 mod;
#X floatatom 159 453 5 0 0 0 - - -, f 5;
#X obj 66 316 t f f;
#X obj 226 361 r \$0-hits;
#X msg 169 175 0;
#X msg 69 560 2 0 1 0 2 0 2 0 1 0 2 0 2 0 1 0 2 0 2;
#X msg 68 519 add2 \$1;
#X obj 71 539 t b a;
#X obj 67 476 expr if($f1+$f2==2 \, 2 \, $f1);
#X msg 34 541 set;
#X floatatom 72 336 5 0 0 0 - - -, f 5;
#X obj 66 282 tabread \$0-euclidean;
#X obj 63 121 t f f;
#X msg 66 623 0;
#X obj 71 599 t b a;
#X obj 66 645 list append;
#X obj 66 670 s \$0-euclidean-all;
#X floatatom 65 101 5 0 0 0 - - -, f 5;
#X obj 44 26 r \$0-rstcompare;
#X obj 64 695 table \$0-euclidean-all;
#X obj 60 73 filtUntil;
#X connect 0 0 1 0;
#X connect 0 0 2 0;
#X connect 1 0 0 1;
#X connect 2 0 5 0;
#X connect 3 0 31 0;
#X connect 4 0 0 0;
#X connect 5 0 22 0;
#X connect 6 0 8 0;
#X connect 7 0 12 0;
#X connect 8 0 9 0;
#X connect 8 0 11 0;
#X connect 9 0 8 1;
#X connect 10 0 7 0;
#X connect 11 0 10 0;
#X connect 12 0 19 1;
#X connect 13 0 19 0;
#X connect 13 0 21 0;
#X connect 13 1 6 0;
#X connect 14 0 11 1;
#X connect 15 0 8 1;
#X connect 15 0 0 1;
#X connect 16 0 25 0;
#X connect 17 0 18 0;
#X connect 18 0 16 0;
#X connect 18 1 16 0;
#X connect 19 0 17 0;
#X connect 20 0 16 0;
#X connect 22 0 13 0;
#X connect 23 0 4 0;
#X connect 23 1 2 1;
#X connect 23 1 20 0;
#X connect 23 1 15 0;
#X connect 24 0 26 0;
#X connect 25 0 24 0;
#X connect 25 1 26 1;
#X connect 26 0 27 0;
#X connect 28 0 23 0;
#X connect 29 0 31 0;
#X connect 31 0 28 0;
#X restore 46 50 pd euclideanCompare;
#N canvas 336 23 1030 677 gui 0;
#X floatatom 140 273 5 0 0 1 z - -, f 5;
#X floatatom 99 209 5 0 0 1 phi - -, f 5;
#X obj 99 273 t b f;
#X floatatom 57 273 5 0 0 1 r - -, f 5;
#X floatatom 149 368 0 0 0 0 y - -;
#X floatatom 57 368 0 0 0 0 x - -;
#X obj 89 331 pol2cart;
#X floatatom 99 135 5 0 0 0 - - -, f 5;
#X obj 57 393 + 200;
#X obj 129 415 + 200;
#X obj 99 184 deg2rad;
#X obj 9 208 loadbang;
#X obj 99 159 expr ($f1+270)%360;
#X msg 471 403 0 18.9474 37.8947 56.8421 75.7895 94.7368 113.684 132.632
151.579 170.526 189.474 208.421 227.368 246.316 265.263 284.211 303.158
322.105 341.053;
#X obj 426 203 until;
#X msg 455 280 0;
#X obj 473 313 +;
#X msg 441 353 add2 \$1;
#X msg 396 373 set;
#X obj 437 149 t f f b;
#X floatatom 437 111 5 0 0 0 - - -, f 5;
#X obj 506 288 expr 360/$f1;
#X floatatom 506 313 5 0 0 0 - - -, f 5;
#X msg 441 461 0;
#X obj 441 486 list append;
#X obj 441 378 t b b a;
#X obj 438 300 f;
#X msg 115 35 0;
#X obj 99 60 f;
#X obj 130 57 + 1;
#X obj 99 85 t f f;
#X obj 441 511 s \$0-bangdeg;
#X obj 99 110 tabread \$0-bangdeg;
#X obj 99 10 r \$0-gencircle;
#X obj 64 512 pack f f \$0 f;
#X obj 427 224 t b b;
#X obj 438 537 table \$0-bangdeg;
#X text 512 42 recibiría STEPS;
#X obj 437 43 r \$0-steps;
#X obj 441 81 filtUntil;
#X obj 62 636 s pd-\$0-circle;
#X msg 520 190 \; pd-\$1-circle clear;
#X obj 520 171 f \$0;
#X msg 64 572 obj \$1 \$2 bng 15 150 50 0 empty \$3-step\$4 empty 17
7 0 10 -191407 -204800 -1 \;;
#X obj 526 137 loadbang;
#X msg 9 233 90;
#X obj 380 262 s \$0-gencircle;
#X msg 254 292 gui redraw;
#X obj 253 322 s camomile;
#X obj 352 241 t b b;
#X obj 255 232 r \$0-rstcompare;
#N canvas 472 117 450 323 filtRedraw 0;
#X obj 95 243 spigot;
#X obj 141 111 bng 15 250 50 0 empty empty empty 17 7 0 10 -262144
-1 -1;
#X obj 141 141 t b b;
#X msg 169 163 0;
#X msg 128 214 1;
#X obj 87 213 f;
#X obj 111 183 t b b;
#X obj 94 74 change;
#X obj 96 269 outlet;
#X obj 91 32 inlet;
#X obj 93 96 t a b;
#X obj 125 160 del 25;
#X connect 0 0 8 0;
#X connect 1 0 2 0;
#X connect 2 0 11 0;
#X connect 2 1 3 0;
#X connect 3 0 0 1;
#X connect 4 0 0 1;
#X connect 5 0 0 0;
#X connect 6 0 5 0;
#X connect 6 1 4 0;
#X connect 7 0 10 0;
#X connect 9 0 7 0;
#X connect 10 0 5 1;
#X connect 10 1 1 0;
#X connect 11 0 6 0;
#X restore 254 263 pd filtRedraw;
#X connect 0 0 6 2;
#X connect 1 0 2 0;
#X connect 2 0 6 0;
#X connect 2 1 6 1;
#X connect 3 0 6 0;
#X connect 4 0 9 0;
#X connect 5 0 8 0;
#X connect 6 0 5 0;
#X connect 6 1 4 0;
#X connect 7 0 12 0;
#X connect 8 0 34 0;
#X connect 9 0 34 1;
#X connect 10 0 1 0;
#X connect 11 0 45 0;
#X connect 12 0 10 0;
#X connect 13 0 24 1;
#X connect 14 0 35 0;
#X connect 15 0 26 1;
#X connect 16 0 26 1;
#X connect 17 0 25 0;
#X connect 18 0 13 0;
#X connect 19 0 14 0;
#X connect 19 1 21 0;
#X connect 19 2 15 0;
#X connect 19 2 18 0;
#X connect 19 2 27 0;
#X connect 19 2 42 0;
#X connect 20 0 19 0;
#X connect 21 0 22 0;
#X connect 22 0 16 1;
#X connect 23 0 24 0;
#X connect 24 0 31 0;
#X connect 25 0 23 0;
#X connect 25 1 13 0;
#X connect 25 2 13 0;
#X connect 26 0 16 0;
#X connect 26 0 17 0;
#X connect 27 0 28 1;
#X connect 28 0 29 0;
#X connect 28 0 30 0;
#X connect 29 0 28 1;
#X connect 30 0 32 0;
#X connect 30 1 34 3;
#X connect 32 0 7 0;
#X connect 33 0 28 0;
#X connect 34 0 43 0;
#X connect 35 0 49 0;
#X connect 35 1 26 0;
#X connect 38 0 39 0;
#X connect 39 0 20 0;
#X connect 42 0 41 0;
#X connect 43 0 40 0;
#X connect 44 0 42 0;
#X connect 45 0 3 0;
#X connect 47 0 48 0;
#X connect 49 0 51 0;
#X connect 49 1 46 0;
#X connect 50 0 51 0;
#X connect 51 0 47 0;
#X restore 46 74 pd gui;
#N canvas 585 44 873 617 colors 0;
#X floatatom 133 405 10 0 0 0 - - -, f 10;
#X obj 100 174 until;
#X obj 125 285 tabread \$0-euclidean-all;
#X obj 98 233 i;
#X obj 132 234 + 1;
#X msg 116 207 0;
#X obj 104 149 t f b;
#X obj 97 257 t f f;
#X msg 87 522 \; \$3-step\$1 color \$2;
#X obj 133 342 sel 0 1 2, f 30;
#X obj 104 14 r \$0-steps;
#X obj 87 474 pack f f \$0, f 16;
#X obj 105 67 filtUntil;
#X floatatom 106 90 5 0 0 0 - - -, f 5;
#X obj 181 10 r \$0-rstcompare;
#X obj 106 117 pipe 1;
#X text 155 119 filtro para que dibuje bien;
#X obj 452 374 bng 15 250 50 0 empty empty empty 17 7 0 10 -258699
-44926 -262144;
#X msg 448 325 color \$1 \$2 \$3;
#X obj 448 299 pack f f f;
#X msg 453 251 23 47 66;
#X msg 187 370 -645534;
#X msg 681 353 color \$1;
#X obj 674 268 hsl 128 15 0 127 0 0 empty empty empty -2 -8 0 10 -262144
-1 -1 0 1;
#X floatatom 680 334 5 0 0 0 - - -, f 5;
#X obj 683 293 int;
#X msg 130 370 12;
#X msg 557 322 color -735534;
#X msg 247 371 43;
#X connect 0 0 11 1;
#X connect 1 0 3 0;
#X connect 2 0 9 0;
#X connect 3 0 4 0;
#X connect 3 0 7 0;
#X connect 4 0 3 1;
#X connect 5 0 3 1;
#X connect 6 0 1 0;
#X connect 6 1 5 0;
#X connect 7 0 11 0;
#X connect 7 1 2 0;
#X connect 9 0 26 0;
#X connect 9 1 21 0;
#X connect 9 2 28 0;
#X connect 10 0 12 0;
#X connect 11 0 8 0;
#X connect 12 0 13 0;
#X connect 13 0 15 0;
#X connect 14 0 12 0;
#X connect 15 0 6 0;
#X connect 18 0 17 0;
#X connect 19 0 18 0;
#X connect 20 0 19 0;
#X connect 21 0 0 0;
#X connect 22 0 17 0;
#X connect 23 0 25 0;
#X connect 24 0 22 0;
#X connect 25 0 24 0;
#X connect 26 0 0 0;
#X connect 27 0 17 0;
#X connect 28 0 0 0;
#X restore 46 98 pd colors;
#N canvas 508 23 776 631 MIDI-OUT 0;
#X obj 192 120 i;
#X obj 232 121 + 1;
#X obj 192 149 mod 10;
#X floatatom 192 174 5 0 0 0 - - -, f 5;
#X obj 193 528 noteout;
#X obj 193 479 makenote;
#X obj 260 132 r \$0-steps;
#X obj 193 304 sel 1 2;
#X obj 192 255 tabread \$0-euclidean-all;
#X obj 268 409 pack f f;
#X obj 137 382 pack f f;
#X floatatom 254 351 5 0 0 0 - - -, f 5;
#X obj 256 320 hsl 128 15 0 127 0 0 empty empty MIDI_note -2 -8 0 10
-262144 -1 -1 0 1;
#X floatatom 297 371 5 0 0 0 - - -, f 5;
#X obj 299 352 hsl 128 15 0 127 0 0 empty empty Accent_Velocity -2
-8 0 10 -262144 -1 -1 0 1;
#X floatatom 151 340 5 0 0 0 - - -, f 5;
#X obj 49 324 hsl 128 15 0 127 0 0 empty empty Hit_Velocity -2 -8 0
10 -262144 -1 -1 0 1;
#X msg 270 210 \; \$2-step\$1 bang;
#X obj 271 188 pack f \$0;
#X msg 254 448 14 127 100;
#X msg 183 447 14 54 100;
#X msg 138 405 set \$1 \$2 100;
#X obj 153 358 t b f;
#X obj 295 387 t b f;
#X obj 381 304 r \$0-MIDInote;
#X obj 48 292 r \$0-hitVel;
#X obj 425 336 r \$0-accVel;
#N canvas 513 91 853 590 syncBPM 0;
#X obj 49 8 r playhead;
#X obj 49 34 route playing bpm position, f 74;
#X obj 429 72 int;
#X obj 428 90 change;
#X obj 351 300 outlet;
#X obj 461 125 s \$0-bpmfbk;
#X obj 49 57 change;
#X obj 428 110 bng 15 250 50 0 empty empty empty 17 7 0 10 -262144
-1 -1;
#X obj 196 60 change;
#X obj 350 56 unpack;
#X obj 377 141 r \$0-speed;
#X obj 351 160 *;
#X obj 350 191 int;
#X obj 350 216 change;
#X obj 351 270 spigot;
#X obj 350 243 t b;
#X obj 196 84 s \$0-bpm;
#X connect 0 0 1 0;
#X connect 1 0 6 0;
#X connect 1 1 8 0;
#X connect 1 2 9 0;
#X connect 2 0 3 0;
#X connect 3 0 7 0;
#X connect 6 0 14 1;
#X connect 7 0 5 0;
#X connect 8 0 16 0;
#X connect 9 0 2 0;
#X connect 9 0 11 0;
#X connect 10 0 11 1;
#X connect 11 0 12 0;
#X connect 12 0 13 0;
#X connect 13 0 15 0;
#X connect 14 0 4 0;
#X connect 15 0 14 0;
#X restore 192 32 pd syncBPM;
#X obj 225 60 r \$0-on-off;
#X msg 269 429 set \$1 \$2 100;
#X obj 190 85 spigot;
#X connect 0 0 1 0;
#X connect 0 0 2 0;
#X connect 1 0 0 1;
#X connect 2 0 3 0;
#X connect 3 0 8 0;
#X connect 3 0 18 0;
#X connect 5 0 4 0;
#X connect 5 1 4 1;
#X connect 6 0 2 1;
#X connect 7 0 20 0;
#X connect 7 1 19 0;
#X connect 8 0 7 0;
#X connect 9 0 29 0;
#X connect 10 0 21 0;
#X connect 11 0 9 0;
#X connect 11 0 10 0;
#X connect 12 0 11 0;
#X connect 13 0 23 0;
#X connect 14 0 13 0;
#X connect 15 0 22 0;
#X connect 16 0 15 0;
#X connect 18 0 17 0;
#X connect 19 0 5 0;
#X connect 20 0 5 0;
#X connect 21 0 20 0;
#X connect 22 0 10 0;
#X connect 22 1 10 1;
#X connect 23 0 9 0;
#X connect 23 1 9 1;
#X connect 24 0 12 0;
#X connect 25 0 16 0;
#X connect 26 0 14 0;
#X connect 27 0 30 0;
#X connect 28 0 30 1;
#X connect 29 0 19 0;
#X connect 30 0 0 0;
#X restore 46 122 pd MIDI-OUT;
#X obj 354 386 nbx 2 20 1 32 0 0 empty empty STEPS -2 -8 0 15 -17753
-248914 -1 1 256;
#X obj 267 410 nbx 5 14 -1e+37 1e+37 0 0 empty empty ROTATION 0 -8
0 10 -17753 -248914 -1 0 256;
#X obj 268 372 nbx 5 14 0 32 0 0 empty \$0-hits HITS 0 -8 0 10 -17753
-248914 -1 0 256;
#X obj 57 395 s \$0-stepsGui;
#X obj 420 410 nbx 5 14 -1e+37 1e+37 0 0 empty empty ROTATION 0 -8
0 10 -17753 -248914 -1 0 256;
#X obj 420 372 nbx 5 14 0 32 0 0 empty empty ACCENT 0 -8 0 10 -17753
-248914 -1 0 256;
#X obj 360 452 tgl 25 0 empty empty GO! 1 14 0 14 -17753 -248914 -240391
0 1;
#X obj 420 335 nbx 5 14 -1e+37 1e+37 0 0 empty empty BPM 0 -8 0 10
-17753 -248914 -1 0 256;
#X obj 422 448 hsl 49 14 0 127 0 0 empty empty VELOCITY -2 -8 0 10
-17753 -248914 -1 0 1;
#X obj 270 448 hsl 49 14 0 127 0 0 empty empty VELOCITY -2 -8 0 10
-17753 -248914 -1 0 1;
#X obj 226 347 i;
#X obj 269 335 nbx 5 14 0 127 0 0 empty empty MIDI_NOTE 0 -8 0 10 -17753
-248914 -1 0 256;
#X obj 144 347 s \$0-MIDInote;
#X obj 205 464 i;
#X obj 267 462 nbx 5 14 0 127 0 0 empty empty empty 0 -8 0 10 -17753
-248914 -1 0 256;
#X obj 133 464 s \$0-hitVel;
#X obj 505 459 i;
#X obj 419 462 nbx 5 14 0 127 0 0 empty empty empty 0 -8 0 10 -17753
-248914 -1 0 256;
#X obj 532 459 s \$0-accVel;
#N canvas 284 122 539 491 \$0-circle 0;
#X coords 0 -1 1 1 210 210 2 100 105;
#X restore 265 104 pd \$0-circle;
#N canvas 184 97 1068 626 euclideanEngine 0;
#X obj 114 209 i;
#X obj 146 209 + 1;
#X floatatom 116 278 5 0 0 0 - - -, f 5;
#X floatatom 198 255 5 0 0 0 - - -, f 5;
#X obj 198 273 t b f;
#X floatatom 354 242 5 0 0 0 - - -, f 5;
#X obj 356 264 t b f;
#X obj 479 287 t b f;
#X obj 120 358 <;
#X obj 112 161 until;
#X msg 122 455;
#X msg 70 424 set, f 4;
#X obj 116 240 mod;
#X floatatom 112 77 5 0 0 0 - - -, f 5;
#X obj 114 14 hsl 128 15 1 64 0 0 empty empty STEPS -2 -8 0 10 -262144
-1 -1 0 1;
#X obj 113 35 i;
#X msg 153 184 0, f 4;
#X msg 121 414 add2 \$1;
#X obj 119 560 s \$0-euclidean;
#X msg 123 511 0;
#X obj 122 490 t b a;
#X obj 117 536 list append;
#X obj 162 101 s \$0-steps;
#X obj 34 57 r \$0-rst;
#X obj 652 304 expr (($f1 + $f2) * $f3) % $f4, f 64;
#X obj 648 192 i;
#X obj 677 192 + 1;
#X floatatom 647 261 5 0 0 0 - - -, f 5;
#X floatatom 736 228 5 0 100 0 - - -, f 5;
#X obj 735 248 t b f;
#X floatatom 886 231 5 0 100 0 - - -, f 5;
#X obj 1005 274 t b f;
#X obj 651 341 <;
#X obj 643 144 until;
#X msg 653 449;
#X msg 615 406 set, f 4;
#X obj 647 223 mod;
#X floatatom 645 84 5 0 0 0 - - -, f 5;
#X msg 684 167 0, f 4;
#X msg 652 397 add2 \$1;
#X msg 649 514 0;
#X obj 654 490 t b a;
#X obj 649 536 list append;
#X obj 649 561 s \$0-euclidean-acc;
#X obj 645 59 r \$0-hits;
#X obj 396 257 s \$0-hits;
#X obj 114 133 t f f f;
#X obj 645 116 t f f f;
#X obj 885 272 s \$0-rstacc;
#X obj 734 273 s \$0-rstacc;
#X obj 618 39 r \$0-rstacc;
#X obj 17 86 r \$0-rstacc;
#X obj 121 321 expr (($f1 + $f2) * $f3) % $f4, f 65;
#X obj 197 294 s \$0-rst;
#X obj 356 286 s \$0-rst;
#X obj 885 253 t b f;
#X obj 539 458 s \$0-rstcompare;
#X obj 361 166 hsl 128 15 0 1 0 0 empty empty HITS -2 -8 0 10 -262144
-1 -1 0 1;
#X obj 454 185 r \$0-steps;
#X obj 356 204 expr int($f1*$f2);
#X obj 883 149 hsl 128 15 0 1 0 0 empty empty ACCENTS -2 -8 0 10 -262144
-1 -1 0 0;
#X obj 879 186 expr int($f1*$f2);
#X obj 977 166 r \$0-hits;
#X obj 203 168 hsl 128 15 0 1 0 0 empty empty ROTATION -2 -8 0 10 -262144
-1 -1 0 1;
#X obj 280 187 r \$0-steps;
#X obj 200 210 expr int($f2-($f1*$f2));
#X obj 735 149 hsl 128 15 0 1 0 0 empty empty ACCENT_ROTATION -2 -8
0 10 -262144 -1 -1 0 1;
#X obj 732 191 expr int($f2-($f1*$f2));
#X obj 813 169 r \$0-hits;
#X obj 104 182 t b b;
#X obj 113 56 change;
#X obj 356 224 change;
#X obj 200 235 change;
#X obj 886 208 change;
#X obj 734 210 change;
#X obj 121 583 table \$0-euclidean;
#X obj 647 586 table \$0-euclidean-acc;
#X obj 655 417 t b b a;
#X obj 15 464 s \$0-rstcompare;
#X obj 124 434 t b a;
#X obj 244 -2 r \$0-stepsGui;
#X obj 199 130 r \$0-rotGui;
#X obj 358 133 r \$0-hitsGui;
#X obj 358 541 bng 15 250 50 0 empty empty empty 17 7 0 10 -262144
-1 -1;
#X obj 879 118 r \$0-acctGui;
#X obj 733 114 r \$0-accRotGui;
#X obj 244 268 s \$0-rot;
#X obj 928 244 s \$0-acc;
#X obj 782 243 s \$0-accRot;
#X obj 376 365 loadbang;
#X connect 0 0 1 0;
#X connect 0 0 12 0;
#X connect 1 0 0 1;
#X connect 2 0 52 0;
#X connect 3 0 4 0;
#X connect 3 0 86 0;
#X connect 4 0 52 0;
#X connect 4 0 53 0;
#X connect 4 1 52 1;
#X connect 5 0 6 0;
#X connect 5 0 45 0;
#X connect 6 0 52 0;
#X connect 6 0 54 0;
#X connect 6 1 8 1;
#X connect 6 1 52 2;
#X connect 7 0 52 0;
#X connect 7 1 52 3;
#X connect 8 0 17 0;
#X connect 9 0 69 0;
#X connect 10 0 20 0;
#X connect 11 0 10 0;
#X connect 12 0 2 0;
#X connect 13 0 22 0;
#X connect 13 0 46 0;
#X connect 14 0 15 0;
#X connect 15 0 70 0;
#X connect 16 0 0 1;
#X connect 17 0 79 0;
#X connect 19 0 21 0;
#X connect 20 0 19 0;
#X connect 20 1 21 1;
#X connect 21 0 18 0;
#X connect 23 0 13 0;
#X connect 24 0 32 0;
#X connect 25 0 26 0;
#X connect 25 0 36 0;
#X connect 26 0 25 1;
#X connect 27 0 24 0;
#X connect 28 0 29 0;
#X connect 28 0 88 0;
#X connect 29 0 24 0;
#X connect 29 0 49 0;
#X connect 29 1 24 1;
#X connect 30 0 55 0;
#X connect 30 0 87 0;
#X connect 31 0 24 0;
#X connect 31 1 24 3;
#X connect 32 0 39 0;
#X connect 33 0 25 0;
#X connect 34 0 41 0;
#X connect 35 0 34 0;
#X connect 36 0 27 0;
#X connect 37 0 47 0;
#X connect 38 0 25 1;
#X connect 39 0 77 0;
#X connect 40 0 42 0;
#X connect 41 0 40 0;
#X connect 41 1 42 1;
#X connect 42 0 43 0;
#X connect 44 0 37 0;
#X connect 46 0 9 0;
#X connect 46 1 16 0;
#X connect 46 1 12 1;
#X connect 46 1 11 0;
#X connect 46 2 7 0;
#X connect 47 0 33 0;
#X connect 47 1 38 0;
#X connect 47 1 36 1;
#X connect 47 1 35 0;
#X connect 47 2 31 0;
#X connect 50 0 37 0;
#X connect 51 0 13 0;
#X connect 52 0 8 0;
#X connect 55 0 48 0;
#X connect 55 0 24 0;
#X connect 55 1 24 2;
#X connect 55 1 32 1;
#X connect 57 0 59 0;
#X connect 58 0 59 1;
#X connect 59 0 71 0;
#X connect 60 0 61 0;
#X connect 61 0 73 0;
#X connect 62 0 61 1;
#X connect 63 0 65 0;
#X connect 64 0 65 1;
#X connect 65 0 72 0;
#X connect 66 0 67 0;
#X connect 67 0 74 0;
#X connect 68 0 67 1;
#X connect 69 1 0 0;
#X connect 70 0 13 0;
#X connect 71 0 5 0;
#X connect 72 0 3 0;
#X connect 73 0 30 0;
#X connect 74 0 28 0;
#X connect 77 0 56 0;
#X connect 77 1 34 0;
#X connect 77 2 34 0;
#X connect 79 0 10 0;
#X connect 79 0 78 0;
#X connect 79 1 10 0;
#X connect 80 0 14 0;
#X connect 81 0 63 0;
#X connect 82 0 57 0;
#X connect 84 0 60 0;
#X connect 85 0 66 0;
#X connect 89 0 11 0;
#X connect 89 0 35 0;
#X restore 46 26 pd euclideanEngine;
#X text 34 199 ((COUNT+ROTATION)*HITS)%STEPS;
#X text 35 233 [< HITS];
#X text 35 214 |;
#X obj 491 334 i;
#X obj 347 335 nbx 5 14 1 16 0 0 empty empty SPEED_1/x 0 -8 0 10 -17753
-248914 -1 1 256;
#X obj 537 374 r \$0-stepsParam;
#X obj 147 362 r \$0-hits;
#X obj 186 396 r \$0-rot;
#X obj 144 434 r \$0-hitVelParam;
#X obj 545 439 r \$0-accVelParam;
#N canvas 402 23 964 255 Parameters 0;
#X obj 21 27 r param;
#X obj 181 86 change;
#X obj 181 130 s \$0-stepsParam;
#X obj 280 74 change;
#X text 290 130 0-1;
#X obj 280 111 s \$0-hitsGui;
#X obj 280 93 / 127;
#X obj 359 75 change;
#X obj 359 94 / 127;
#X obj 359 112 s \$0-rotGui;
#X obj 437 82 change;
#X obj 436 111 s \$0-hitVelParam;
#X obj 548 81 change;
#X obj 548 100 / 127;
#X obj 643 77 change;
#X obj 643 96 / 127;
#X obj 643 116 s \$0-accRotGui;
#X obj 750 78 change;
#X obj 751 115 s \$0-accVelParam;
#X obj 548 118 s \$0-acctGui;
#X obj 20 51 route 1 2 3 4 5 6 7 8 9, f 138;
#X obj 21 88 change;
#X obj 109 88 change;
#X obj 21 147 s \$0-pitchParam;
#X obj 112 157 s \$0-speedParam;
#X obj 109 111 + 1;
#X obj 180 108 + 1;
#X obj 23 110 int;
#X connect 0 0 20 0;
#X connect 1 0 26 0;
#X connect 3 0 6 0;
#X connect 6 0 5 0;
#X connect 7 0 8 0;
#X connect 8 0 9 0;
#X connect 10 0 11 0;
#X connect 12 0 13 0;
#X connect 13 0 19 0;
#X connect 14 0 15 0;
#X connect 15 0 16 0;
#X connect 17 0 18 0;
#X connect 20 0 21 0;
#X connect 20 1 22 0;
#X connect 20 2 1 0;
#X connect 20 3 3 0;
#X connect 20 4 7 0;
#X connect 20 5 10 0;
#X connect 20 6 12 0;
#X connect 20 7 14 0;
#X connect 20 8 17 0;
#X connect 21 0 27 0;
#X connect 22 0 25 0;
#X connect 25 0 24 0;
#X connect 26 0 2 0;
#X connect 27 0 23 0;
#X restore 46 146 pd Parameters;
#X obj 545 396 r \$0-accRotGui;
#X obj 593 350 r \$0-acc;
#X obj 514 334 s \$0-speed;
#X obj 510 498 s \$0-on-off;
#X obj 460 335 bng 14 250 50 0 empty \$0-bpmfbk empty 17 7 0 10 -17753
-248914 -1;
#X obj 503 286 r \$0-speedParam;
#X obj 138 317 r \$0-pitchParam;
#X obj 744 199 tgl 15 0 empty empty empty 17 7 0 10 -262144 -1 -1 0
1;
#X obj 503 306 r \$0-bpm;
#X connect 4 0 7 0;
#X connect 10 0 39 0;
#X connect 12 0 20 0;
#X connect 13 0 17 0;
#X connect 14 0 16 0;
#X connect 15 0 14 0;
#X connect 17 0 18 0;
#X connect 17 0 19 0;
#X connect 20 0 21 0;
#X connect 20 0 22 0;
#X connect 28 0 38 0;
#X connect 29 0 28 0;
#X connect 30 0 4 0;
#X connect 31 0 6 0;
#X connect 32 0 5 0;
#X connect 33 0 13 0;
#X connect 34 0 12 0;
#X connect 36 0 8 0;
#X connect 37 0 9 0;
#X connect 41 0 29 0;
#X connect 42 0 15 0;
#X connect 44 0 11 0;
#X coords 0 -1 1 1 220 400 2 260 80;
